<?xml version="1.0" standalone="no"?>
<!DOCTYPE svg PUBLIC "-//W3C//DTD SVG 1.1//EN" "http://www.w3.org/Graphics/SVG/1.1/DTD/svg11.dtd" >
<!--
2013-9-30: Created.
-->
<svg>
<metadata>
Created by iconfont
</metadata>
<defs>

<font id="iconfont" horiz-adv-x="1024" >
  <font-face
    font-family="iconfont"
    font-weight="500"
    font-stretch="normal"
    units-per-em="1024"
    ascent="896"
    descent="-128"
  />
    <missing-glyph />
    
    <glyph glyph-name="x" unicode="x" horiz-adv-x="1001"
d="M281 543q-27 -1 -53 -1h-83q-18 0 -36.5 -6t-32.5 -18.5t-23 -32t-9 -45.5v-76h912v41q0 16 -0.5 30t-0.5 18q0 13 -5 29t-17 29.5t-31.5 22.5t-49.5 9h-133v-97h-438v97zM955 310v-52q0 -23 0.5 -52t0.5 -58t-10.5 -47.5t-26 -30t-33 -16t-31.5 -4.5q-14 -1 -29.5 -0.5
t-29.5 0.5h-32l-45 128h-439l-44 -128h-29h-34q-20 0 -45 1q-25 0 -41 9.5t-25.5 23t-13.5 29.5t-4 30v167h911zM163 247q-12 0 -21 -8.5t-9 -21.5t9 -21.5t21 -8.5q13 0 22 8.5t9 21.5t-9 21.5t-22 8.5zM316 123q-8 -26 -14 -48q-5 -19 -10.5 -37t-7.5 -25t-3 -15t1 -14.5
t9.5 -10.5t21.5 -4h37h67h81h80h64h36q23 0 34 12t2 38q-5 13 -9.5 30.5t-9.5 34.5q-5 19 -11 39h-368zM336 498v228q0 11 2.5 23t10 21.5t20.5 15.5t34 6h188q31 0 51.5 -14.5t20.5 -52.5v-227h-327z" />
    

    
    <glyph glyph-name="shanchuwendang" unicode="&#58886;" d="M729.888 613.984q-10.016 0-17.504 7.488t-12.512 17.504-7.488 20.512-2.496 17.504l0 123.008 2.016 0q8.992 0 16.992-2.016t19.488-9.504 28-20.992 41.504-35.488q27.008-24 43.008-40.512t24-28 10.496-19.488 2.496-14.016l0-16-148 0zM845.888 240q46.016 0 86.016-17.504t70.016-47.488 47.488-70.016 17.504-84.992q0-46.016-17.504-86.016t-47.488-70.016-70.016-47.488-86.016-17.504q-44.992 0-84.992 17.504t-70.016 47.488-47.488 70.016-17.504 86.016q0 44.992 17.504 84.992t47.488 70.016 70.016 47.488 84.992 17.504zM889.888 19.008l66.016 66.016q8.992 8.992 8.992 22.016t-8.992 22.016-22.016 8.992-22.016-8.992l-66.016-66.016-67.008 66.016q-8.992 8.992-22.016 8.992t-22.016-8.992-8.992-22.016 8.992-22.016l66.016-66.016-66.016-67.008q-8.992-8.992-8.992-22.016t8.992-22.016 22.016-8.992 22.016 8.992l67.008 66.016 66.016-66.016q8.992-8.992 22.016-8.992t22.016 8.992 8.992 22.016-8.992 22.016zM560.896 49.984q-0.992-8-0.992-14.016l0-15.008q0-44.992 12.992-85.504t36.992-74.496l-355.008 0q-19.008 0-41.504 11.008t-42.016 28.992-32.512 40.992-12.992 48l0 680.992q0 20.992 10.016 44t26.496 41.504 37.504 31.008 44 12.512l383.008 0 0-124.992q0-19.008 6.016-40.992t18.496-40.512 32.512-31.008 48-12.512l146.016 0 0-248q-8.992 0.992-18.016 1.504t-16.992 0.512q-75.008 0-137.504-35.008t-100.512-94.016l-291.008 0q-26.016 0-44.512-18.496t-18.496-44.512 18.496-44 44.512-18.016l247.008 0zM313.888 424.992q-26.016 0-44.512-18.016t-18.496-44 18.496-44.512 44.512-18.496l375.008 0q26.016 0 44.512 18.496t18.496 44.512-18.496 44-44.512 18.016l-375.008 0z"  horiz-adv-x="1024" />

    
    <glyph glyph-name="fangdajing" unicode="&#58932;" d="M850.453-0.653l0.105 0.223-197.89 193.493c38.961 45.944 61.363 103.043 63.198 161.203 3.664 70.834-24.038 144.003-74.073 195.682-42.739 45.105-102.838 75.421-164.821 83.209-12.031 1.639-24.352 2.458-36.625 2.458-61.344 0-121.126-19.942-168.322-56.113-54.705-40.781-92.468-101.996-103.616-167.925-11.054-61.446 0.911-127.372 32.811-180.82 21.819-37.152 52.888-69.073 89.828-92.298 33.909-21.453 72.924-35.474 112.775-40.485 11.958-1.62 24.219-2.439 36.445-2.439 56.586 0 112.572 17.3 158.132 48.773l197.642-193.343 3.655-3.368 0.105 0.091c6.515-5.235 14.768-8.14 23.319-8.14 20.202 0 36.637 16.127 36.637 35.947 0 8.787-3.358 17.279-9.308 23.853M649.856 263.257c-32.378-64.734-97.46-112.073-169.899-123.548-33.909-5.773-69.646-3.986-102.941 5.139-64.972 17.433-120.583 63.58-148.808 123.528-32.677 66.559-28.602 150.391 10.387 213.6 34.702 58.404 95.873 99.427 163.56 109.707l4.802 0.71c2.525 0.409 5.069 0.799 7.555 1.082 8.369 0.858 16.882 1.286 25.282 1.286 34.569 0 68.716-7.283 98.811-21.085 55.059-24.691 98.955-70.579 120.409-125.929 23.529-59.109 20.125-128.061-9.157-184.488z"  horiz-adv-x="1024" />

    
    <glyph glyph-name="guanbi" unicode="&#58899;" d="M488.605174 786.46159499l42.708707 0 0-278.224676-42.708707 0 0 278.224676ZM624.026446 726.26458499l0-45.263903c121.92898-46.200228 208.860888-164.146501 208.860888-302.063617 0-178.063465-144.863319-322.93497-322.927807-322.93497-178.077791 0-322.94111 144.871505-322.94111 322.93497 0 137.919163 86.936001 255.865435 208.870098 302.06464l0 45.260833c-145.914254-48.045249-251.578806-185.53974-251.578806-347.325473 0-201.613834 164.03496-365.643678 365.649817-365.643678S875.596042 177.32323098999996 875.596042 378.93706498999995C875.596042 540.7238209899999 769.93763 678.22035899 624.026446 726.26458499z"  horiz-adv-x="1024" />

    
    <glyph glyph-name="jiantou2" unicode="&#58898;" d="M945.556928 422.033221 211.998857 422.033221l187.31927 180.329065c4.795213 4.796236 4.795213 12.570293 0 17.366529l-37.626969 37.626969c-4.796236 4.795213-12.570293 4.795213-17.366529 0L108.517017 430.344514c-0.272199-0.229221-0.541329-0.464581-0.797156-0.721431l-1.258667-1.258667-36.366256-35.009352c-2.567475-2.568499-3.746324-5.990434-3.564175-9.351995-0.188288-3.368724 0.99056-6.79987 3.563152-9.372461l36.444027-35.084053 1.182942-1.182942c0.2415-0.2415 0.496304-0.462534 0.75213-0.680499l235.851613-227.050156c4.796236-4.797259 12.570293-4.797259 17.366529 0l37.626969 37.626969c4.795213 4.795213 4.795213 12.56927 0 17.365506L213.755874 344.26195l731.801055 0c6.782473 0 12.279674 5.498224 12.279674 12.279674l0 53.211922C957.836603 416.534997 952.339402 422.033221 945.556928 422.033221z"  horiz-adv-x="1024" />

    
    <glyph glyph-name="zuojiantou" unicode="&#59109;" d="M277.696 140.608c-7.68 0-15.36 2.752-21.504 8.32l-231.68 210.56c-6.656 6.08-10.496 14.656-10.496 23.68 0 9.024 3.84 17.6 10.496 23.68l233.472 212.352c13.12 11.84 33.344 10.88 45.248-2.176 11.904-13.056 10.88-33.344-2.176-45.248L93.568 383.168l205.632-186.816c13.056-11.904 14.016-32.128 2.176-45.184C295.104 144.128 286.4 140.608 277.696 140.608zM948.032 351.616 948.032 351.616 81.024 352c-17.664 0-32 14.336-32 32 0 17.664 14.336 32 32 32l0 0 867.008-0.384c17.664 0 32-14.336 32-32C980.032 365.888 965.696 351.616 948.032 351.616z"  horiz-adv-x="1024" />

    
    <glyph glyph-name="xinzengzhanghao" unicode="&#58915;" d="M257.751 367.861c5.165-5.165 12.295-8.363 20.168-8.366l218.44-0.161 0.162-218.441c0.003-7.873 3.201-15.003 8.365-20.167 5.162-5.162 12.292-8.36 20.168-8.366 15.745-0.011 28.504 12.747 28.493 28.493l-0.162 218.441 218.438-0.166c15.745-0.011 28.504 12.747 28.493 28.493-0.008 15.749-12.785 28.525-28.533 28.533l-218.438 0.166-0.165 218.437c-0.011 15.745-12.785 28.519-28.533 28.534-15.745 0.011-28.504-12.747-28.493-28.493l0.166-218.438-218.441 0.162c-15.745 0.011-28.504-12.747-28.493-28.493C249.392 380.152 252.59 373.021 257.751 367.861zM922.188 384.06c0 109.405-42.663 212.268-120.134 289.63C724.584 751.055 621.581 793.66 512.019 793.66s-212.565-42.605-290.04-119.971c-77.47-77.361-120.134-180.22-120.134-289.63 0-79.707 22.951-156.984 66.373-223.475 8.609-13.181 26.286-16.892 39.486-8.3 13.199 8.596 16.922 26.251 8.313 39.431C178.66 248.921 158.91 315.434 158.91 384.06c0 194.431 158.405 352.614 353.108 352.614 194.709 0 353.109-158.182 353.109-352.614S706.721 31.445 512.018 31.445c-64.477 0-127.55 17.505-182.41 50.627-13.486 8.144-31.025 3.824-39.18-9.644-8.151-13.468-3.829-30.982 9.652-39.121 63.767-38.499 137.055-58.848 211.937-58.848 109.557 0 212.561 42.605 290.035 119.971C879.523 171.792 922.188 274.65 922.188 384.06"  horiz-adv-x="1024" />

    
    <glyph glyph-name="jiantou" unicode="&#58897;" d="M157.211043 415.139208c-5.553483 0-10.04989-4.500501-10.04989-10.048867l0-43.563168c0-5.551436 4.497431-10.051937 10.04989-10.051937l599.084381 0-151.908782-146.240689c-3.925403-3.925403-3.925403-10.290367 0-14.21577l30.80254-30.80254c3.925403-3.929496 10.29446-3.929496 14.219863 0l193.077414 185.870268c0.211824 0.179079 0.419556 0.360204 0.615007 0.558725l0.971118 0.968048 29.832446 28.720112c2.105964 2.106987 3.074012 4.916986 2.917446 7.673773 0.149403 2.750647-0.814552 5.553483-2.917446 7.655354l-29.772071 28.659737-1.032516 1.032516c-0.206708 0.207731-0.427742 0.404206-0.650823 0.591471L649.408021 607.783763c-3.925403 3.929496-10.29446 3.929496-14.219863 0l-30.80254-30.803563c-3.925403-3.925403-3.925403-10.289344 0-14.214746l153.346527-147.628292L157.211043 415.137161 157.211043 415.139208zM157.211043 415.139208"  horiz-adv-x="1024" />

    
    <glyph glyph-name="saoma" unicode="&#59209;" d="M928.016126 352.091382 95.983874 352.091382c-17.717453 0-31.994625 14.277171-31.994625 31.994625S78.26642 416.080632 95.983874 416.080632l832.032253 0c17.717453 0 31.994625-14.277171 31.994625-31.994625S945.73358 352.091382 928.016126 352.091382zM832.032253-32.016126 639.892491-32.016126c-17.717453 0-31.994625 14.277171-31.994625 31.994625s14.277171 31.994625 31.994625 31.994625l191.967747 0c17.717453 0 31.994625 14.277171 31.994625 31.994625l0 159.973123c0 17.717453 14.277171 31.994625 31.994625 31.994625s31.994625-14.277171 31.994625-31.994625l0-159.973123C928.016126 11.159415 884.840585-32.016126 832.032253-32.016126zM351.94087-32.016126l-159.973123 0c-52.980346 0-95.983874 43.003528-95.983874 95.983874l0 159.973123c0 17.717453 14.277171 31.994625 31.994625 31.994625S159.973123 241.658324 159.973123 223.94087l0-159.973123c0-17.717453 14.449185-31.994625 31.994625-31.994625l159.973123 0c17.717453 0 31.994625-14.277171 31.994625-31.994625C383.935495-17.738955 369.658324-32.016126 351.94087-32.016126zM127.978498 512.064505c-17.717453 0-31.994625 14.277171-31.994625 31.994625l0 159.973123c0 52.980346 43.003528 95.983874 95.983874 95.983874l159.973123 0c17.717453 0 31.994625-14.277171 31.994625-31.994625S369.658324 736.026877 351.94087 736.026877l-159.973123 0c-17.545439 0-31.994625-14.449185-31.994625-31.994625l0-159.973123C159.973123 526.341676 145.695952 512.064505 127.978498 512.064505zM896.021502 512.064505c-17.717453 0-31.994625 14.277171-31.994625 31.994625l0 159.973123c0 17.545439-14.277171 31.994625-31.994625 31.994625L639.892491 736.026877c-17.717453 0-31.994625 14.277171-31.994625 31.994625s14.277171 31.994625 31.994625 31.994625l191.967747 0c52.980346 0 95.983874-43.003528 95.983874-95.983874l0-159.973123C928.016126 526.341676 913.738955 512.064505 896.021502 512.064505z"  horiz-adv-x="1024" />

    
    <glyph glyph-name="jinzhi" unicode="&#59190;" d="M512 896C230.4 896 1.536 667.136 1.536 385.536c0-281.6 228.864-510.464 510.464-510.464s510.464 228.864 510.464 510.464C1022.464 667.136 793.6 896 512 896zM772.096 56.32c-74.24-58.368-165.888-90.112-260.096-90.112-231.424 0-419.84 188.416-419.84 419.84 0 95.232 32.768 188.416 92.672 263.168L772.096 56.32zM260.096 721.408c71.68 54.272 160.768 83.968 251.904 83.968 231.424 0 419.84-188.416 419.84-419.84 0-92.16-30.72-182.272-86.528-254.976L260.096 721.408z"  horiz-adv-x="1024" />

    
    <glyph glyph-name="camera" unicode="&#59049;" d="M720.269 89.254h-148.762v40.832c149.293 27.885 262.189 158.79 262.189 316.224 0 132.090-79.501 245.338-193.267 294.893-0.019-0.026-0.038-0.051-0.064-0.083-39.322 17.203-82.688 26.88-128.365 26.88-45.683 0-89.043-9.677-128.365-26.874l-0.064 0.077c-113.766-49.555-193.267-162.803-193.267-294.893 0-157.44 112.896-288.339 262.189-316.224v-40.832h-148.762c-28.531 0-29.773-29.734-29.773-29.734v-59.52h476.083v59.52c-0.006 16.378-13.357 29.734-29.773 29.734v0zM619.514 717.402c-28.179-26.33-65.875-42.541-107.514-42.541s-79.334 16.211-107.514 42.534c33.306 13.344 69.523 20.87 107.514 20.87s74.208-7.52 107.514-20.864v0zM353.92 446.31c0 87.322 70.707 158.048 158.080 158.048 87.322 0 158.080-70.733 158.080-158.048 0-87.334-70.765-158.074-158.080-158.074-87.373 0-158.080 70.739-158.080 158.074v0zM595.686 446.31c0 46.246-37.453 83.654-83.686 83.654-15.923 0-30.637-4.672-43.302-12.378 3.949 1.235 8.051 2.048 12.384 2.048 23.443 0 42.426-18.989 42.426-42.438 0-23.424-18.976-42.4-42.426-42.4-23.456 0-42.413 18.982-42.413 42.4 0 4.358 0.838 8.454 2.054 12.403-7.731-12.666-12.403-27.373-12.403-43.302 0-46.266 37.414-83.68 83.68-83.68 46.24 0.013 83.686 37.427 83.686 83.693v0zM595.686 446.31z"  horiz-adv-x="1024" />

    
    <glyph glyph-name="jiantou1" unicode="&#59181;" d="M744.728 230.892l73.12 0 138.51 152.47-138.51 153.75-73.12 0 112.5-125.68L67.64 411.432l0-54.86 789.588 0L744.728 230.892z"  horiz-adv-x="1024" />

    
    <glyph glyph-name="asmkticon0165" unicode="&#59350;" d="M256 384m-64 0a10 10 0 1 0 128 0 10 10 0 1 0-128 0ZM512 384m-64 0a10 10 0 1 0 128 0 10 10 0 1 0-128 0ZM768 384m-64 0a10 10 0 1 0 128 0 10 10 0 1 0-128 0Z"  horiz-adv-x="1024" />

    
    <glyph glyph-name="jiahao" unicode="&#58882;" d="M1000.794968 536.074716c-17.526299 65.903828-61.761302 130.707298-63.703111 133.53469-9.205941 13.392599-27.523675 16.773113-40.913332 7.56423-12.474653-8.582208-16.249413-25.066992-9.261842-38.106535l-0.114743-0.050016c0.535469-0.788492 1.050342-1.591695 1.579927-2.383129 0.079438-0.12357 0.150049-0.253024 0.235371-0.376593 0.017653-0.035306 0.17947-0.264792 0.435436-0.653154 1.188623-1.779992 2.362535-3.577636 3.521736-5.378223 3.321671-5.172274 8.440986-13.395541 14.289951-23.681246 0.764955-1.359266 1.544621-2.706764 2.291923-4.074857 12.35991-22.186641 27.147081-52.446502 34.890781-81.95906 1.132722-3.612942 2.230138-7.240595 3.280481-10.891784 2.286039-7.976128 4.401434-16.031695 6.26969-24.184351 27.100007-117.950199 6.637457-239.392713-57.607007-341.96143-64.244464-102.562832-164.585984-173.971395-282.542068-201.065518-117.950199-27.097065-239.395656-6.637457-341.96143 57.609949-102.55989 64.244464-173.971395 164.583042-201.065518 282.539126-27.094123 117.953142-6.631573 239.395656 57.612891 341.96143 64.244464 102.565775 164.585984 173.974338 282.536184 201.065518 69.122524 15.878704 139.442497 15.399136 206.461394-0.623733 44.276192-10.591687 87.107796-27.964995 127.200272-51.925744 2.774433-1.662306 5.545925-3.336381 8.296821-5.060473l0.079438 0.126512c13.595607-7.614246 30.910072-3.321671 39.27162 10.026797 8.62634 13.772135 4.460277 31.928051-9.3148 40.551449-0.597253 0.373651-3.901271 2.427262-9.303031 5.557693C535.013779 965.779444 226.074874 891.881835 78.170796 655.760775c-150.090084-239.604547-77.525262-555.516312 162.082227-705.603454 239.610431-150.090084 555.519255-77.52232 705.609339 162.085169C1028.3157 243.879503 1043.532424 398.532839 1000.794968 536.074716zM530.588807 124.411161c16.249413 0 29.421352 11.874458 29.421352 26.523349l0 206.626154 206.626154 0c14.648891 0 26.520407 13.171939 26.520407 29.41841s-11.871515 29.424294-26.520407 29.424294l-206.626154 0 0 206.626154c0 14.648891-13.171939 26.523349-29.421352 26.523349-16.24647 0-29.421352-11.874458-29.421352-26.523349l0-206.626154-206.626154 0c-14.648891 0-26.523349-13.177823-26.523349-29.424294s11.874458-29.41841 26.523349-29.41841l206.626154 0 0-206.626154C501.164513 136.285619 514.342337 124.411161 530.588807 124.411161z"  horiz-adv-x="1024" />

    
    <glyph glyph-name="wifino" unicode="&#58991;" d="M313.34 182.208c16.7-16.8 43.9-16.8 60.6 0 73.3 73.4 192.7 73.4 266 0 16.7-16.8 43.9-16.8 60.6 0 8.4 8.4 12.5 19.3 12.5 30.3 0 11-4.2 21.9-12.5 30.3-106.8 106.8-280.4 106.8-387.2 0C296.54 226.108 296.54 199.008 313.34 182.208zM166.14 379.508c-16.7-16.7-16.7-43.9 0-60.6 16.7-16.8 43.9-16.8 60.6 0 154.5 154.6 405.9 154.6 560.4 0 16.7-16.8 43.9-16.8 60.6 0 8.4 8.4 12.6 19.4 12.6 30.3 0 11-4.2 21.9-12.6 30.3-91 91.1-212 141.2-340.8 141.2S257.14 470.508 166.14 379.508zM31.24 531.808c-16.7-16.7-16.7-43.9 0-60.6 16.7-16.7 43.9-16.7 60.6 0 110.9 110.9 258.3 172 415 172s304.2-61.1 415-172c16.8-16.7 43.9-16.7 60.6 0 8.4 8.4 12.5 19.3 12.5 30.3 0 11-4.2 21.9-12.5 30.3-127 127.1-296 197.1-475.6 197.1C327.24 728.908 158.34 658.908 31.24 531.808zM506.94 5.408c33.1 0 59.9 26.8 59.9 59.9 0 33.1-26.8 59.9-59.9 59.9s-59.9-26.8-59.9-59.9C447.04 32.208 473.84 5.408 506.94 5.408zM984.24 65.408c6.3-6.5 11-12.5 13.9-18 2.9-5.5 2.5-11.7-1.5-18.6-0.9-1.3-2.1-2.9-3.6-4.7-1.5-1.9-3.1-3.7-4.7-5.4-1.6-1.7-3.3-3.3-4.9-4.7-1.6-1.4-3-2.5-4.1-3.1-5.5-3.3-11.9-4.1-19.3-2.6-7.4 1.5-14.1 5.2-20 11.1l-13.7 13.7-18.3 18.3-21.6 21.6-23.6 23.6-41.9-41.9c-12.9-12.9-23.3-23.4-31.4-31.7-8.3-8.3-16.5-13.4-24.7-15.4-8.2-2-15.4-0.1-21.8 5.6l-2.3 2.3-3.6 3.6-3.6 3.6c-1.3 1.3-2.1 2.2-2.3 2.6-2.4 3.1-3.8 6.2-4.3 9.3-0.4 3.2-0.2 6.3 0.8 9.3s2.5 6 4.4 8.8c2 2.8 4.1 5.5 6.5 7.9 2 1.7 5.5 5 10.5 9.8l17.7 18.3c7.2 7 15.2 14.8 24 23.6 8.8 8.7 18 17.9 27.6 27.5-10.5 10.5-20.4 20.4-29.9 29.8-9.5 9.4-18 17.8-25.5 25.2-7.5 7.4-13.7 13.5-18.5 18.2-4.8 4.7-7.7 7.6-8.8 8.7-5.7 5.7-8.6 11.3-8.7 16.8s1.8 11.2 5.7 16.8c1.7 2.2 4.3 4.7 7.5 7.7 3.3 2.9 5.6 4.9 6.9 5.7 6.5 4.4 12.4 6.3 17.7 5.7s10.5-3.5 15.7-9l10.1-10.1c5-5 11.2-11.1 18.6-18.3 7.4-7.2 15.8-15.3 25-24.4 9.3-9.1 18.9-18.5 28.9-28.3 8.3 8.3 16.4 16.4 24.4 24.2 8 7.9 15.4 15.2 22.2 22.1 6.9 6.9 13.1 13 18.6 18.5 5.6 5.5 10.2 10 13.9 13.7 5.2 5 10.9 8.3 17 10s12 0.3 17.7-4.1c0.2-0.2 0.9-0.8 2.1-1.6 1.2-0.9 2.4-1.9 3.6-2.9s2.3-2.1 3.4-3.1c1.1-1 1.9-1.6 2.3-1.8 5.9-5.7 8.8-11.8 8.7-18.5-0.1-6.7-3-12.8-8.7-18.5-3.9-3.9-8.8-8.8-14.6-14.7-5.8-5.9-12.2-12.3-19.3-19.3-7.1-7-14.6-14.4-22.4-22.2L907.64 141.008c8.1-7.9 16-15.5 23.7-23.1s14.9-14.6 21.6-21.1c6.7-6.5 12.6-12.5 18-18C976.34 73.408 980.74 68.908 984.24 65.408L984.24 65.408z"  horiz-adv-x="1024" />

    
    <glyph glyph-name="tupian" unicode="&#58910;" d="M868.787474 751.029234 156.414911 751.029234c-45.421492 0-82.213443-36.789904-82.213443-82.179674l0-547.980469c0-45.38977 36.791951-82.214467 82.213443-82.214467l712.372563 0c45.38977 0 82.214467 36.823674 82.214467 82.214467l0.002047 547.980469C950.970218 714.237283 914.145521 751.029234 868.787474 751.029234L868.787474 751.029234 868.787474 751.029234zM882.480334 204.73415 710.498378 434.043766c0 0-9.984399 18.546402-45.085848 18.546402-39.828101 0-51.797713-17.97335-51.797713-17.97335L462.980052 202.105277c0 0-8.193613-15.58086-28.293393-15.58086-21.041222 0-31.091112 15.58086-31.091112 15.58086l-79.212086 90.541109c0 0-20.300348 26.876114-46.670949 26.876114-26.27134 0-48.085158-29.740348-48.085158-29.740348l-86.936001-108.315938L142.691351 654.145673c0 15.106046 12.274558 27.414373 27.41642 27.414373l684.991959 0c15.141862 0 27.412326-12.30628 27.412326-27.414373l0-449.411523L882.480334 204.73415 882.480334 204.73415 882.480334 204.73415zM471.410048 504.42165c0-53.617152-43.431162-97.051383-97.015567-97.051383-53.584406 0-97.051383 43.468001-97.051383 97.051383 0 53.549613 43.468001 97.017614 97.051383 97.017614C427.978886 601.405495 471.410048 557.969217 471.410048 504.42165L471.410048 504.42165 471.410048 504.42165z"  horiz-adv-x="1024" />

    
    <glyph glyph-name="icon162" unicode="&#59040;" d="M981.025233 431.543829c-5.738701 58.788941-21.63167 114.761744-49.176003 166.966733-65.153906 123.498732-165.19232 204.197682-299.890115 241.482867-30.903847 8.556886-62.515822 13.167904-94.560656 14.740726-1.716084 0.080841-3.415796 0.471744-5.118578 0.719384l-40.148395 0c-9.240455-0.822738-18.489096-1.559519-27.724435-2.485611-70.663386-7.087419-136.618541-28.732391-196.935278-66.142419-107.426685-66.632583-177.941692-161.210635-211.213469-283.279808-8.391111-30.795377-13.002129-62.255902-14.589276-94.146217-0.099261-2.00875-0.475837-4.00522-0.723477-6.008854l0-38.399565c0.826831-9.537214 1.532913-19.087731 2.489704-28.610618 7.501858-74.623581 31.284517-143.718239 72.132854-206.553333 61.949934-95.28311 147.233296-160.53116 255.546164-195.320501 37.810141-12.143575 76.658937-18.925025 116.338658-20.881586 1.567705-0.075725 3.119037-0.453325 4.682649-0.691755l40.143279 0c6.057973 0.535189 12.111852 1.11438 18.174941 1.596358 59.626006 4.746094 116.571972 19.765159 169.852456 46.90631 127.007649 64.699558 209.734792 165.996638 247.837598 303.427684 8.53028 30.758538 13.037944 62.249763 14.605649 94.146217 0.080841 1.711991 0.471744 3.406586 0.719384 5.109368l0 40.143279C982.656383 413.359678 981.915509 422.460963 981.025233 431.543829L981.025233 431.543829zM510.723937-34.702104c-230.386134 0.196475-417.635819 188.431603-417.414785 419.612846C93.529163 615.918024 281.233196 803.127799 512.598634 803.09096c231.163847-0.030699 418.580331-187.851389 418.507676-419.396929C931.030585 152.201703 743.03798-34.904719 510.723937-34.702104L510.723937-34.702104zM510.723937-34.702104M762.040776 585.982224 422.011476 245.959064 262.374686 405.594831 230.598982 373.815033 422.011476 182.400492 422.026826 182.415842 453.795367 214.181313 793.81648 554.202427Z"  horiz-adv-x="1024" />

    
    <glyph glyph-name="jiantou3" unicode="&#58948;" d="M78.443 345.968h733.558L624.682 165.64c-4.795-4.796-4.795-12.57 0-17.367l37.627-37.627c4.796-4.795 12.57-4.795 17.367 0l235.807 227.011c0.272 0.229 0.541 0.465 0.797 0.721l1.259 1.259 36.367 35.009c2.567 2.568 3.746 5.99 3.564 9.352 0.188 3.369-0.991 6.8-3.562 9.372l-37.627 36.267a12.924 12.924 0 0 1-0.752 0.68l-235.852 227.05c-4.796 4.797-12.57 4.797-17.367 0l-37.627-37.627c-4.795-4.795-4.795-12.569 0-17.367l185.562-178.637h-731.8c-6.783 0-12.28-5.498-12.28-12.28v-53.213c0-6.781 5.497-12.28 12.28-12.28z"  horiz-adv-x="1024" />

    
    <glyph glyph-name="touxiang" unicode="&#59017;" d="M526.334473 2.255623c-91.252307-0.124843-168.545694-0.99363-245.542322 6.825452-23.362081 2.373047-46.36805 7.17133-66.978461 19.481703-18.894326 11.285021-28.399817 27.6395-28.983101 50.03865-3.814886 146.681734 108.74982 263.156492 255.918647 262.895549 61.393255-0.10847 122.914424 4.013407 184.201256-3.075035C752.033865 323.724195 851.753007 201.539388 841.382822 73.38359c-2.033309-25.130354-16.997116-40.019459-38.785351-49.491181-30.759561-13.372565-63.597457-17.110703-96.502891-18.393929-64.546062-2.517333-129.124869-5.077645-179.760107-3.242857zM505.72304 753.042077c110.310362-0.026606 201.882963-89.669252 202.054879-197.794855 0.171915-108.386546-93.261057-200.301955-202.916503-199.620433-109.338221 0.679475-201.664999 92.312452-201.001897 199.491497 0.672312 108.606557 91.793636 197.950398 201.863521 197.923791z"  horiz-adv-x="1024" />

    
    <glyph glyph-name="dianhua" unicode="&#59007;" d="M998.4 121.018182c39.563636-48.872727 20.945455-121.018182 6.981818-134.981818-13.963636-13.963636-13.963636-20.945455-79.127273-81.454546-67.490909-60.509091-202.472727-18.618182-262.981818 0-58.181818 18.618182-223.418182 125.672727-377.018182 269.963637C130.327273 321.163636 51.2 505.018182 18.618182 605.090909-13.963636 705.163636 6.981818 742.4 18.618182 774.981818 30.254545 809.890909 53.527273 837.818182 118.690909 875.054545 186.181818 914.618182 209.454545 886.690909 225.745455 877.381818c16.290909-9.309091 90.763636-74.472727 116.363636-134.981818 25.6-60.509091 13.963636-100.072727-6.981818-118.690909-18.618182-18.618182-34.909091-34.909091-51.2-46.545455-16.290909-11.636364-20.945455-27.927273-16.290909-60.509091 2.327273-32.581818 116.363636-155.927273 139.636363-179.2s172.218182-179.2 225.745455-190.836363c51.2-11.636364 72.145455 11.636364 76.8 16.290909 4.654545 6.981818 25.6 34.909091 48.872727 53.527273 23.272727 18.618182 86.109091 13.963636 100.072727 2.327272 18.618182-11.636364 100.072727-48.872727 139.636364-97.745454z"  horiz-adv-x="1024" />

    
    <glyph glyph-name="sanjiao" unicode="&#58883;" d="M288 512h448L509.696 256z"  horiz-adv-x="1024" />

    
    <glyph glyph-name="rili" unicode="&#58885;" d="M339.196329 84.500788h61.398372v343.830883h-45.680389c-1.964748-10.483772-6.139837-19.325138-12.525268-26.524097-6.385431-7.206122-14.083763-13.101389-23.085788-17.682731-9.010211-4.589528-19.079544-7.858992-30.207999-9.823739-11.135618-1.964748-22.594601-2.947122-34.383088-2.947122v-44.206828h84.48416v-242.646366zM664.853293 263.292847c-10.154267-8.841366-21.290909-17.114796-33.401737-24.804942a621.412922 621.412922 0 0 1-34.874275-23.821545c-23.254633-15.717983-41.590234-34.221406-55.012942-55.504128-13.430894-21.289885-20.307512-46.171576-20.629853-74.66042h234.787375v50.101071h-167.494759c2.286066 7.528464 6.54609 14.650675 12.769838 21.366634 6.216585 6.707772 13.507642 13.178137 21.85782 19.401885 8.350179 6.216585 17.437138 12.440333 27.260878 18.665105 9.82374 6.216585 19.647479 12.769838 29.471218 19.647479a368.43935 368.43935 0 0 1 28.488845 22.103414c9.163707 7.858992 17.353227 16.454764 24.559348 25.787316 7.198959 9.332553 12.932544 19.562545 17.192568 30.699186 4.250814 11.128455 6.384407 23.576975 6.384407 37.329187 0 11.128455-1.803066 22.840194-5.402033 35.119869-3.607154 12.279674-9.746992 23.653723-18.419512 34.137495-8.679683 10.475586-20.061918 19.156292-34.137495 26.032909-14.083763 6.876618-31.604812 10.314926-52.557006 10.314927-19.325138 0-36.270065-3.361561-50.837852-10.069333-14.573927-6.714935-26.938536-15.963577-37.084616-27.752064-10.153244-11.788487-17.766642-25.787316-22.839171-41.996487-5.081739-16.20917-7.613398-33.815153-7.613399-52.8026h55.995316c0.322341 12.110829 1.551332 23.408129 3.684925 33.891902 2.125407 10.475586 5.402033 19.562545 9.82374 27.260877 4.420683 7.690146 10.314926 13.753235 17.682731 18.173918 7.367805 4.420683 16.615423 6.631024 27.752064 6.631024 12.110829 0 21.934568-2.048659 29.471218-6.139837 7.528464-4.098341 13.422707-9.17087 17.682732-15.226796 4.250814-6.064113 7.122211-12.610202 8.594748-19.647479 1.473561-7.046486 2.210341-13.676487 2.210342-19.893073-0.329505-13.430894-3.768837-25.296129-10.314927-35.611055-6.5553-10.314926-14.904455-19.893072-25.050536-28.734439zM838.026378 769.590985h-59.445904V816.762331c0 6.723122-5.64251 12.254092-12.603039 12.254092h-34.219359c-7.118118 0-12.602016-5.485945-12.602016-12.254092v-47.171346h-415.973969V816.762331c0 6.723122-5.64251 12.254092-12.602016 12.254092h-34.220383c-7.118118 0-12.602016-5.485945-12.602016-12.254092v-47.171346H184.311773c-65.738213 0-118.828362-53.168943-118.828363-118.755707v-594.434478c0-65.448618 53.200666-118.755708 118.828363-118.755707h653.715628c65.738213 0 118.828362 53.168943 118.828363 118.755707V650.835278c-0.001023 65.448618-53.202713 118.755708-118.829386 118.755707z m59.402925-713.191208c0-32.806173-26.523073-59.331293-59.402925-59.331293H184.310749c-32.757055 0-59.402925 26.65201-59.402925 59.331293V531.892305h772.521479v-475.492528z m0 534.916942H124.907824v59.518559c0 32.806173 26.523073 59.331293 59.402925 59.331293h59.445904v-47.171346c0-6.723122 5.64251-12.254092 12.602016-12.254091h34.220382c7.118118 0 12.602016 5.485945 12.602016 12.254091v47.171346h415.972947v-47.171346c0-6.723122 5.64251-12.254092 12.602015-12.254091h34.21936c7.119141 0 12.603039 5.485945 12.603039 12.254091v47.171346h59.445904c32.757055 0 59.402925-26.65201 59.402924-59.331293v-59.518559z"  horiz-adv-x="1024" />

    
    <glyph glyph-name="jiantou4" unicode="&#58968;" d="M767.707 376.55L308.066 824.522l-52.012-50.732L663.628 376.58 256.086-20.63l51.975-50.733z"  horiz-adv-x="1024" />

    
    <glyph glyph-name="dianyuanxinpian" unicode="&#58891;" d="M776.532 177.204c0-35.203-28.428-63.629-63.629-63.629h-402.836c-35.203 0-63.629 28.428-63.629 63.629v402.836c0 35.203 28.428 63.629 63.629 63.629h402.836c35.203 0 63.629-28.428 63.629-63.629v-402.836zM175.002 205.043h106.048v-39.031h-106.048v39.031zM175.002 281.927h106.048v-38.883h-106.048v38.883zM175.002 358.959h106.048v-38.883h-106.048v38.883zM175.002 435.993h106.048v-38.883h-106.048v38.883zM175.002 513.026h106.048v-38.883h-106.048v38.883zM175.002 590.059h106.048v-38.883h-106.048v38.883zM741.625 205.485h106.048v-38.883h-106.048v38.883zM741.625 282.517h106.048v-38.883h-106.048v38.883zM741.625 359.548h106.048v-38.883h-106.048v38.883zM741.625 436.582h106.048v-38.883h-106.048v38.883zM741.625 513.616h106.048v-38.883h-106.048v38.883zM741.625 590.646h106.048v-38.883h-106.048v38.883zM684.623 715.108h38.883v-105.901h-38.883v105.901zM607.591 715.108h38.883v-105.901h-38.883v105.901zM530.561 715.108h38.883v-105.901h-38.883v105.901zM453.526 715.108h38.883v-105.901h-38.883v105.901zM376.494 715.108h38.883v-105.901h-38.883v105.901zM299.462 715.108h38.883v-105.901h-38.883v105.901zM684.623 148.63h38.883v-106.048h-38.883v106.048zM607.591 148.63h38.883v-106.048h-38.883v106.048zM530.561 148.63h38.883v-106.048h-38.883v106.048zM453.526 148.63h38.883v-106.048h-38.883v106.048zM376.494 148.63h38.883v-106.048h-38.883v106.048zM299.462 148.63h38.883v-106.048h-38.883v106.048z"  horiz-adv-x="1024" />

    
    <glyph glyph-name="sanjiao-bottom" unicode="&#58881;" d="M714.376 279.553l-202.376 252.971-202.376-252.971z"  horiz-adv-x="1024" />

    
    <glyph glyph-name="mima" unicode="&#58958;" d="M765.946 524.036v70.080c-1.469 139.498-116.362 252.991-256.086 252.991-140.225 0-255.055-113.82-256.153-253.921v-69.409c-63.951-4.994-114.444-59.148-114.444-125.108v-329.739c0-69.203 55.713-125.491 124.112-125.491h496.994c68.481 0 124.112 56.292 124.112 125.491v329.739c0 67.299-52.685 122.465-118.541 125.356zM296.846 592.94c0.911 112.507 98.308 208.369 211.286 208.369 112.618 0 213.486-95.628 214.659-207.739v-68.219h-425.949v67.586zM846.142 68.969c0-41.52-44.732-84.111-85.778-84.111h-496.994c-41.050 0-84.036 42.582-84.036 84.111v329.715c0 41.52 33.406 87.837 74.482 87.837h496.976c41.070 0 95.359-46.309 95.359-87.837v-329.715zM509.855 396.924c-56.833-0.006-102.896-46.074-102.954-102.896 0-32.309 15.381-62.423 40.938-81.757v-104.658c0-13.895 11.094-25.055 24.775-25.055h74.325c13.695 0 24.831 11.162 24.831 25.055v104.658c24.915 18.911 40.847 48.526 40.891 81.863-0.042 56.709-46.046 102.721-102.803 102.794zM547.602 240.96c-9.717-5.283-15.75-15.559-15.75-26.685v-95.422h-42.133v95.422c0 11.094-6.052 21.372-15.75 26.685-20.623 11.231-27.693 32.508-27.693 55.483 0 35.062 28.785 63.525 64.158 63.525 35.399 0 64.208-28.465 64.208-63.525-0.085-22.972-6.412-44.258-27.046-55.483z"  horiz-adv-x="1024" />

    
    <glyph glyph-name="mimasuo" unicode="&#59126;" d="M768 458.24h-25.6V588.8c0 110.08-107.52 204.8-220.16 204.8h-20.48C389.12 793.6 281.6 698.88 281.6 588.8v-130.56h-25.6c-56.32 0-102.4-46.08-102.4-102.4v-281.6c0-56.32 46.08-102.4 102.4-102.4h512c56.32 0 102.4 46.08 102.4 102.4v281.6c0 56.32-46.08 102.4-102.4 102.4z m-230.4-250.88v-81.92c0-15.36-10.24-25.6-25.6-25.6s-25.6 12.8-25.6 25.6v81.92c-23.04 10.24-38.4 33.28-38.4 58.88 0 35.84 28.16 64 64 64s64-28.16 64-64c0-25.6-15.36-48.64-38.4-58.88z m153.6 250.88H332.8V588.8c0 79.36 84.48 153.6 168.96 153.6h20.48c84.48 0 168.96-74.24 168.96-153.6v-130.56z"  horiz-adv-x="1024" />

    
    <glyph glyph-name="tishi" unicode="&#58945;" d="M597.333333 85.333333a42.666667 42.666667 0 1 1-85.333333 0 42.666667 42.666667 0 0 1 85.333333 0z m-85.333333 124.16V558.506667c0 21.461333 19.114667 38.826667 42.666667 38.826666s42.666667-17.365333 42.666666-38.826666v-349.013334c0-21.504-19.114667-38.826667-42.666666-38.826666s-42.666667 17.322667-42.666667 38.826666z m0.469333 563.370667L97.834667 39.082667c-13.013333-24.362667-16.042667-46.250667-8.277334-60.074667 7.765333-13.781333 27.52-21.674667 54.186667-21.674667h821.845333c26.709333 0 46.464 7.850667 54.186667 21.674667 7.722667 13.781333 4.736 35.669333-8.277333 60.032L596.394667 772.864c-12.629333 23.68-28.330667 37.802667-41.941334 37.802667-13.653333 0-29.312-14.122667-41.984-37.802667zM138.24-128c-55.893333 0-100.736 21.802667-123.136 59.904-22.442667 38.058667-19.712 87.765333 7.509333 136.362667l420.266667 750.72C470.186667 867.925333 510.890667 896 554.410667 896c43.52 0 84.181333-28.032 111.616-76.928l420.693333-750.890667c27.221333-48.597333 30.037333-98.261333 7.552-136.32C1071.914667-106.24 1026.986667-128 971.178667-128H138.197333z"  horiz-adv-x="1109" />

    
    <glyph glyph-name="dingwei" unicode="&#59132;" d="M794.670941 557.234483c0 153.703661-126.498042 278.323936-282.671964 278.323936-156.105361 0-282.670941-124.620275-282.670941-278.323936 0-50.766221 14.051017-98.17702 38.122249-139.155317h-0.302899l240.352113-478.171543a5.000897 5.000897 0 0 1 4.473895-2.759857 4.999874 4.999874 0 0 1 4.473895 2.758833l240.47491 478.172567h-0.344854c24.15412 40.97932 38.093597 88.390119 38.093596 139.155317zM512.025583 418.106796c-78.036307 0-141.333936 62.316278-141.333936 139.168619 0 76.809363 63.297628 139.154293 141.333936 139.154294 78.122265 0 141.334959-62.34493 141.334959-139.154294 0.002047-76.851319-63.21167-139.16862-141.334959-139.168619z"  horiz-adv-x="1024" />

    
    <glyph glyph-name="chevron-copy-copy" unicode="&#58880;" d="M365.063 371.451l268.032-268.052c7.799-7.781 20.407-7.781 28.206 0 7.8 7.8 7.8 20.428 0 28.228l-254.947 254.966 250.736 250.757c7.582 7.561 7.582 19.831 0 27.39-7.56 7.6-19.832 7.6-27.41 0l-260.41-260.392c-1.017-1.017-1.515-2.255-2.256-3.431-0.618-0.458-1.377-0.698-1.957-1.275-7.78-7.78-7.78-20.408 0-28.19z"  horiz-adv-x="1024" />

    
    <glyph glyph-name="shipin2" unicode="&#58922;" d="M960 768H64C28.8 768 0 739.2 0 704v-640c0-35.2 28.8-64 64-64h896c35.2 0 64 28.8 64 64V704c0 35.2-28.8 64-64 64z m-313.28-424.608l-192.736-111.072c-38.496-22.176-69.952-3.968-69.92 40.448l0.192 222.464c0.032 44.416 31.52 62.56 69.984 40.32l192.544-111.392c38.464-22.24 38.432-58.592-0.064-80.768z"  horiz-adv-x="1024" />

    
    <glyph glyph-name="shipin" unicode="&#58919;" d="M841.1 166.9c0-18.7-21.5-40.3-40.5-40.3H220.2c-18.9 0-37.2 17-37.2 35.8v438c0 18.6 24.5 39.3 43.5 39.3h576.8c18.9 0 37.8-24.1 37.8-42.9 0.1-156.2 0.1-273.8 0-429.9z m-42.3 516.9H227.2c-52.2 0-88.2-34.1-88.4-85.9-0.5-143.4-0.5-286.8 0-430.1 0.2-50.8 36.8-85.7 87.7-85.7 190.6-0.1 381.1-0.1 571.7 0 51.5 0 87.5 35.9 87.5 87.1V596.6c-0.1 51.8-35.3 87.2-86.9 87.2zM598.2 371.2c-0.1-0.1-0.1-0.1-0.3-0.2-42.5-31-127.8-92.7-127.8-92.7l-1.4-0.8-22.3-16.1V506.1l169.1-122.4-17.3-12.5z"  horiz-adv-x="1024" />

    
    <glyph glyph-name="wuWIFI" unicode="&#58937;" d="M641.568183 396.094903c-37.56032 26.372389-81.744457 40.310491-127.771794 40.310491-94.98624 0-179.574491-60.310674-210.481738-150.07744a33.364846 33.364846 0 0 1 20.696503-42.411154 33.282926 33.282926 0 0 1 10.866103-1.831497 33.388251 33.388251 0 0 1 31.550903 22.522148c21.632731 62.838491 80.860891 105.0624 147.37408 105.0624a154.8288 154.8288 0 0 0 89.41568-28.192182 155.560229 155.560229 0 0 0 56.290743-72.276846 33.370697 33.370697 0 0 1 62.38208 23.704137 222.196297 222.196297 0 0 1-80.32256 103.189943z m0 0M720.837486 569.817966c-62.604434 36.483657-134.208366 55.769966-207.046949 55.769965-73.558309 0-145.764937-19.643246-208.808228-56.805668a413.98272 413.98272 0 0 1-147.830492-149.041737 33.364846 33.364846 0 0 1 12.176823-45.594332 33.353143 33.353143 0 0 1 45.594331 12.170972 347.136 347.136 0 0 0 123.950812 124.963108c52.785737 31.112046 113.271954 47.55456 174.922606 47.55456 61.047954 0 121.025097-16.144091 173.448045-46.688548a347.270583 347.270583 0 0 0 123.693349-122.88 33.3824 33.3824 0 0 1 57.443474 33.990948 414.193371 414.193371 0 0 1-147.543771 146.560732z m0 0M1012.068937 548.74112c-112.06656 165.888-298.340937 264.917577-498.272548 264.917577-101.376 0-201.599269-25.72288-289.838812-74.395063-85.477669-47.14496-159.024274-115.232183-212.699428-196.906423a33.370697 33.370697 0 0 1 55.769965-36.653348C166.2976 656.746789 333.309074 746.917303 513.796389 746.917303c177.737143 0 343.338423-88.046446 442.976548-235.537554a33.370697 33.370697 0 1 1 55.296 37.361371z m0 0M636.161463 197.708069a33.370697 33.370697 0 0 1-47.191772 0l-74.42432-74.430172-74.430171 74.430172a33.376549 33.376549 0 0 1-47.197623-47.191772l74.430172-74.430171-74.430172-74.430172a33.364846 33.364846 0 0 1 23.598812-56.957805 33.277074 33.277074 0 0 1 23.598811 9.771885l74.42432 74.430172 74.430171-74.430172a33.247817 33.247817 0 0 1 23.598812-9.771885 33.247817 33.247817 0 0 1 23.587108 9.771885 33.34144 33.34144 0 0 1 0 47.18592l-74.42432 74.430172 74.42432 74.430171a33.364846 33.364846 0 0 1 0.005852 47.191772z m0 0"  horiz-adv-x="1024" />

    
    <glyph glyph-name="jiantouyou" unicode="&#58925;" d="M312.888889-99.555556c-17.066667 0-28.444444 5.688889-39.822222 17.066667-22.755556 22.755556-17.066667 56.888889 5.688889 79.644445l364.088888 329.955555c11.377778 11.377778 17.066667 22.755556 17.066667 34.133333 0 11.377778-5.688889 22.755556-17.066667 34.133334L273.066667 708.266667c-22.755556 22.755556-28.444444 56.888889-5.688889 79.644444 22.755556 22.755556 56.888889 28.444444 79.644444 5.688889l364.088889-312.888889c34.133333-28.444444 56.888889-73.955556 56.888889-119.466667s-17.066667-85.333333-51.2-119.466666l-364.088889-329.955556c-11.377778-5.688889-28.444444-11.377778-39.822222-11.377778z"  horiz-adv-x="1024" />

    
    <glyph glyph-name="gou" unicode="&#58884;" d="M512 864C248 864 32 648 32 384s216-480 480-480 480 216 480 480S776 864 512 864z m293.3333334375-341.3333334375L477.33333312499997 199.9999996875c-2.66666625-2.66666625-2.66666625-5.333333437499999-5.333333437499999-7.9999996875l-15.999999375-16.0000003125c-7.9999996875-7.9999996875-18.666666562499998-13.333333125000001-21.333333749999998-7.9999996875l-160.0000003125 162.6666665625c-2.66666625 2.66666625 0 13.333333125000001 8.000000625 21.333333749999998l15.999999375 15.999999375c7.9999996875 7.9999996875 18.666666562499998 13.333333125000001 21.333333749999998 8.000000625l117.33333375000001-122.66666718750001 319.9999996875 312c7.9999996875 7.9999996875 21.333333749999998 7.9999996875 31.9999996875 0l16.0000003125-15.999999375c7.9999996875-5.333333437499999 7.9999996875-18.666666562499998 0-26.6666671875z"  horiz-adv-x="1024" />

    
    <glyph glyph-name="icon_wififail_fill" unicode="&#59762;" d="M746.655368-10.647245c-106.033965 0-191.990662 85.957721-191.990663 191.990662s85.957721 191.990662 191.990663 191.990662 191.990662-85.957721 191.990662-191.990662-85.957721-191.990662-191.990662-191.990662zM1.033539 568.103018C132.13339 698.245054 312.677349 778.648268 512 778.648268s379.865587-80.403215 510.966461-210.54525l-86.571705-94.441952c-108.2484 109.293195-258.415514 176.993087-424.394756 176.993086s-316.14738-67.699891-424.394756-176.993086l-86.571705 94.441952z m489.13627-388.613832c-34.652218-5.954619-64.540945-25.840528-83.696214-53.684689l105.526405-115.119901 23.25361 25.366737c-28.115338 40.828894-44.707225 90.206488-45.083801 143.437853z m80.526011 188.473559c-29.444613-27.77253-52.317553-62.437028-66.040089-101.413737-62.995753-2.131547-119.063723-31.576159-156.735717-76.866669l-72.514547 79.106686c58.523905 64.233953 142.852522 104.545054 236.595556 104.545054a321.809333 321.809333 0 0 0 58.694797-5.371334z m302.368562 36.610826c-37.308721 21.172205-80.447217 33.261545-126.410038 33.261545-26.437116 0-51.940976-4.000104-75.937506-11.427261-48.745191 20.764929-102.388948 32.255635-158.717861 32.255635-115.968222 0-220.560348-48.703235-294.438963-126.772288l-72.217788 78.783321c92.991927 95.404883 222.905766 154.650219 366.657774 154.650219s273.665847-59.245336 366.657774-154.650219l-5.593392-6.100952z m-96.240924-223.230154l60.33618 60.33618c8.330736 8.330736 8.330736 21.837354 0 30.169114-8.330736 8.330736-21.837354 8.330736-30.16809 0l-60.33618-60.33618-60.337204 60.337203c-8.330736 8.330736-21.837354 8.330736-30.169113 0-8.330736-8.330736-8.330736-21.837354 0-30.16809l60.337203-60.337204-60.33618-60.33618c-8.330736-8.330736-8.330736-21.837354 0-30.16809 8.330736-8.330736 21.837354-8.330736 30.16809 0l60.33618 60.33618 60.335157-60.335156c8.330736-8.330736 21.837354-8.330736 30.16809 0 8.330736 8.330736 8.330736 21.837354 0 30.16809l-60.334133 60.334133z"  horiz-adv-x="1024" />

    
    <glyph glyph-name="tishi1" unicode="&#58946;" d="M1140.425087 14.041661L658.555332 848.652675a94.484266 94.484266 0 0 1-163.772727 0L12.91285 14.041661A94.484266 94.484266 0 0 1 94.484266-127.999685h964.054457a94.484266 94.484266 0 0 1 81.886364 142.041346zM529.426835 662.203724a47.242133 47.242133 0 1 0 94.484266 0V171.515437a47.242133 47.242133 0 0 0-94.484266 0z m47.242133-701.388199a62.98951 62.98951 0 1 0 62.989511 62.98951 62.98951 62.98951 0 0 0-62.989511-62.98951z"  horiz-adv-x="1153" />

    


  </font>
</defs>
</svg>
